HIERARCHY
ROOT Hips
{
	OFFSET 0.000000 88.474243 0.000000
	CHANNELS 6 Xposition Yposition Zposition Zrotation Yrotation Xrotation 
	JOINT Hips_Spine
	{
		OFFSET 0.000000 0.000000 0.000000
		CHANNELS 3 Zrotation Yrotation Xrotation
		JOINT Spine
		{
			OFFSET 0.005100 8.711998 -0.691000
			CHANNELS 3 Zrotation Yrotation Xrotation
			JOINT Spine1
			{
				OFFSET -0.009200 8.660301 -1.275000
				CHANNELS 3 Zrotation Yrotation Xrotation
				JOINT Spine2
				{
					OFFSET 0.006300 9.852501 -1.857000
					CHANNELS 3 Zrotation Yrotation Xrotation
					JOINT Spine2_Neck
					{
						OFFSET 0.000000 0.000000 0.000000
						CHANNELS 3 Zrotation Yrotation Xrotation
						JOINT Neck
						{
							OFFSET 0.016300 11.420799 -0.263300
							CHANNELS 3 Zrotation Yrotation Xrotation
							End Site #name: Head
							{
								OFFSET -0.019200 9.262405 2.362500
							}
						}
					}
					JOINT Spine2_LeftShoulder
					{
						OFFSET 0.000000 0.000000 0.000000
						CHANNELS 3 Zrotation Yrotation Xrotation
						JOINT LeftShoulder
						{
							OFFSET 5.616900 6.732201 -0.345700
							CHANNELS 3 Zrotation Yrotation Xrotation
							JOINT LeftArm
							{
								OFFSET 10.664888 -0.183372 -2.440700
								CHANNELS 3 Zrotation Yrotation Xrotation
								JOINT LeftForeArm
								{
									OFFSET 27.459126 0.000000 0.000000
									CHANNELS 3 Zrotation Yrotation Xrotation
									End Site #name: LeftHand
									{
										OFFSET 21.306858 0.000000 0.000000
									}
								}
							}
						}
					}
					JOINT Spine2_RightShoulder
					{
						OFFSET 0.000000 0.000000 0.000000
						CHANNELS 3 Zrotation Yrotation Xrotation
						JOINT RightShoulder
						{
							OFFSET -5.580300 6.737503 -0.344400
							CHANNELS 3 Zrotation Yrotation Xrotation
							JOINT RightArm
							{
								OFFSET -10.679335 -0.188484 -2.383900
								CHANNELS 3 Zrotation Yrotation Xrotation
								JOINT RightForeArm
								{
									OFFSET -27.503529 0.000000 0.000000
									CHANNELS 3 Zrotation Yrotation Xrotation
									End Site #name: RightHand
									{
										OFFSET -21.306808 0.000000 0.000000
									}
								}
							}
						}
					}
				}
			}
		}
	}
	JOINT Hips_LeftUpLeg
	{
		OFFSET 0.000000 0.000000 0.000000
		CHANNELS 3 Zrotation Yrotation Xrotation
		JOINT LeftUpLeg
		{
			OFFSET 6.857700 -6.739601 0.312100
			CHANNELS 3 Zrotation Yrotation Xrotation
			JOINT LeftLeg
			{
				OFFSET -0.367590 -34.731552 -4.572400
				CHANNELS 3 Zrotation Yrotation Xrotation
				End Site #name: LeftFoot
				{
					OFFSET 0.367590 -34.656704 -6.067400
				}
			}
		}
	}
	JOINT Hips_RightUpLeg
	{
		OFFSET 0.000000 0.000000 0.000000
		CHANNELS 3 Zrotation Yrotation Xrotation
		JOINT RightUpLeg
		{
			OFFSET -6.876100 -6.733299 0.301000
			CHANNELS 3 Zrotation Yrotation Xrotation
			JOINT RightLeg
			{
				OFFSET 0.347353 -34.795158 -4.515900
				CHANNELS 3 Zrotation Yrotation Xrotation
				End Site #name: RightFoot
				{
					OFFSET -0.347353 -34.589367 -6.070300
				}
			}
		}
	}
}
MOTION
Frames: 17
Frame Time: 0.041667
0.178800 0.047426 -0.020048 1.329730 14.863373 -6.190612 -0.000000 0.000000 0.000000 -0.252803 -1.976242 -0.141195 0.303844 -1.536632 -1.656613 0.000000 0.000000 0.000000 0.126774 -0.937767 -1.887673 3.862192 0.266132 -4.687631 0.520221 -1.710441 -2.736088 -15.897284 -6.891904 2.132033 -46.874527 -1.428769 7.764853 -0.670192 -33.261862 6.755400 0.416741 -1.332130 -0.974073 12.732036 10.882998 4.256821 57.318270 -6.892095 -5.274126 -0.648657 52.216722 0.604446 0.000000 0.000000 0.000000 -11.039121 19.636624 -5.495405 -2.043324 -3.012173 23.945573 0.000000 0.000000 0.000000 -5.272170 17.182334 -9.463297 7.959887 2.535083 -2.042494 
0.747136 -0.030110 0.139537 3.211799 14.662505 -6.732949 -0.000000 0.000000 0.000000 -2.250250 -2.442683 -0.819932 0.567472 -1.662194 -1.788904 0.000000 0.000000 0.000000 0.215508 -0.881394 -2.992064 4.245925 -1.985745 -2.502259 -0.120928 -1.654959 -3.867426 -21.244482 -3.626028 0.683585 -44.629338 -1.483785 -3.869095 -0.893896 -26.646415 4.690855 0.104302 -1.634706 -1.125372 12.933072 7.934116 1.679042 60.193093 -2.105990 -7.095963 -0.659031 54.291159 -0.927486 0.000000 0.000000 -0.000000 -14.174068 17.251726 -2.571440 -1.014909 0.541237 21.703979 0.000000 0.000000 0.000000 -9.374658 20.044004 -10.008333 8.478027 2.434228 -0.322763 
1.075440 -0.066240 0.195119 4.682553 12.768664 -6.963285 -0.000000 0.000000 -0.000000 -3.635358 -3.652486 -0.643666 0.547239 -1.477433 -1.855252 0.000000 0.000000 0.000000 0.709039 -1.352287 -2.989646 3.417252 -3.110437 -2.712143 -0.431412 -1.598194 -3.431702 -24.686620 -3.121833 2.217907 -45.267494 4.246988 -7.966067 -1.220524 -26.814339 4.631303 0.188782 -1.666084 -1.079252 11.946856 7.009429 1.919468 59.501805 -0.316738 -5.748954 -0.248741 48.585466 -0.719211 0.000000 0.000000 -0.000000 -16.083338 16.909237 -0.546933 -1.288286 0.931123 19.865881 0.000000 0.000000 0.000000 -11.841405 21.632967 -13.233930 7.978286 0.590347 5.898063 
1.358032 -0.094898 0.185741 5.413618 11.000108 -6.925729 -0.000000 0.000000 -0.000000 -4.978754 -3.388799 0.161174 0.547772 -1.395961 -1.784737 0.000000 0.000000 0.000000 0.897788 -1.506814 -2.886172 3.149192 -4.539204 -2.154442 -0.373307 -1.601376 -3.259115 -26.041629 -2.872592 3.561590 -43.825117 5.269657 -7.204320 -0.874793 -25.623110 6.670682 0.273490 -1.665668 -0.992980 10.349260 7.125928 1.833466 59.048192 2.070563 -4.542921 -0.063192 48.702260 -0.594401 0.000000 0.000000 -0.000000 -17.116682 17.110630 0.111935 -1.766838 1.224661 19.081117 0.000000 0.000000 0.000000 -13.732884 21.373102 -16.615689 7.531835 -0.090326 13.090344 
1.672863 -0.105844 0.145238 5.716531 10.583689 -6.598080 -0.000000 0.000000 -0.000000 -5.777209 -2.807256 0.397033 0.445050 -1.342929 -1.797144 0.000000 0.000000 0.000000 0.682031 -1.613050 -3.043440 2.996127 -5.737632 -1.958764 -0.421808 -1.750869 -3.276094 -27.822530 -2.383943 4.686893 -40.711402 5.100344 -7.364273 -0.247308 -21.392218 8.466124 0.233427 -1.701322 -1.020947 8.533161 7.300488 1.712730 59.768637 3.018151 -4.600913 0.004712 50.292913 -0.697118 0.000000 0.000000 -0.000000 -17.691644 17.312550 0.402060 -2.072586 1.341844 18.668074 0.000000 0.000000 0.000000 -15.089264 20.444775 -18.803251 7.282023 0.086833 18.299131 
2.021705 -0.103805 0.099709 5.767252 10.675977 -6.391102 -0.000000 0.000000 -0.000000 -6.025591 -2.453869 -0.139825 0.257071 -1.342220 -1.874765 0.000000 0.000000 0.000000 0.318079 -1.684233 -3.255789 2.727821 -6.508250 -1.844999 -0.607606 -1.850376 -3.421250 -29.971258 -1.585672 5.324964 -38.188002 4.930705 -6.860948 0.146300 -16.786850 9.798708 0.107936 -1.781509 -1.171410 7.026669 7.403395 1.575218 61.353106 2.605249 -5.490983 0.175961 50.008777 -0.701441 0.000000 0.000000 -0.000000 -18.026962 17.438379 0.343252 -2.013830 1.518335 18.527922 0.000000 0.000000 0.000000 -15.872990 19.367290 -19.738976 7.120386 0.647696 21.530226 
2.383218 -0.091894 0.055310 5.599596 11.263843 -6.318919 -0.000000 0.000000 -0.000000 -5.802678 -2.135006 -0.849002 0.005603 -1.289211 -2.063621 0.000000 0.000000 0.000000 0.000181 -1.692694 -3.415819 2.472378 -6.905385 -1.724403 -0.875235 -1.857023 -3.664556 -31.877186 -0.737006 5.534242 -36.339025 4.909573 -6.229307 0.523225 -12.327833 10.333594 -0.095346 -1.787976 -1.331190 6.208214 7.341753 1.485641 63.008418 2.006742 -7.012206 0.366731 49.068015 -0.680573 0.000000 0.000000 -0.000000 -18.136097 17.399984 -0.016596 -1.866088 1.728204 18.720987 0.000000 0.000000 0.000000 -16.349766 18.201942 -19.807480 6.922388 1.093043 23.339536 
2.734236 -0.069146 0.019627 5.309540 12.390537 -6.243398 -0.000000 0.000000 -0.000000 -5.660854 -1.812026 -1.489828 -0.203858 -1.184932 -2.257576 0.000000 0.000000 0.000000 -0.214369 -1.671615 -3.555832 2.248486 -7.058549 -1.572352 -1.125252 -1.817828 -3.883222 -33.329956 -0.016706 5.466737 -35.130838 4.831273 -5.769209 0.816517 -9.180806 10.121031 -0.360523 -1.735834 -1.450083 5.808782 7.260458 1.467289 65.084702 1.537723 -8.161038 0.550136 47.488243 -0.643763 0.000000 0.000000 -0.000000 -18.063745 17.283300 -0.549495 -1.689244 2.018554 18.989821 0.000000 0.000000 0.000000 -16.564919 16.851196 -19.381603 6.424376 1.040777 24.031441 
3.049761 -0.035125 -0.002360 4.911070 13.966262 -6.148395 -0.000000 0.000000 -0.000000 -5.789184 -1.442853 -1.780257 -0.341394 -1.053289 -2.430606 0.000000 0.000000 0.000000 -0.370315 -1.618734 -3.674077 2.180988 -6.898488 -1.471340 -1.296906 -1.741521 -4.085896 -34.158796 0.430886 5.363239 -34.600668 4.665313 -5.424088 0.927840 -7.881981 9.618076 -0.555798 -1.638153 -1.553521 5.537568 7.127823 1.461198 67.103820 1.277035 -8.387419 0.704599 45.402883 -0.577163 0.000000 0.000000 -0.000000 -17.867507 17.159302 -1.113896 -1.397868 2.385653 19.109852 0.000000 0.000000 0.000000 -16.541328 15.292722 -18.701968 5.831510 0.816573 23.922510 
3.324182 0.014291 -0.008002 4.429815 15.641229 -6.030698 -0.000000 0.000000 -0.000000 -6.120902 -1.031718 -1.851890 -0.444371 -0.922501 -2.627209 0.000000 0.000000 0.000000 -0.518027 -1.545374 -3.802993 2.194641 -6.577320 -1.388848 -1.418268 -1.645986 -4.270513 -34.409116 0.713519 5.288291 -34.657897 4.619253 -5.378086 0.862600 -7.734826 9.220954 -0.770622 -1.511841 -1.633898 5.205001 6.991034 1.430312 68.580204 1.580679 -7.909889 0.827680 43.487307 -0.525384 0.000000 0.000000 -0.000000 -17.522237 17.066384 -1.593134 -1.116377 2.786837 18.985301 0.000000 0.000000 0.000000 -16.324336 13.410214 -17.802481 5.265470 0.494886 23.137237 
3.555525 0.076723 0.000486 3.909976 17.237032 -5.890998 -0.000000 0.000000 -0.000000 -6.623889 -0.688735 -1.725081 -0.540483 -0.803191 -2.826158 0.000000 0.000000 0.000000 -0.665455 -1.458137 -3.917670 2.358965 -5.942397 -1.325178 -1.519602 -1.559312 -4.457791 -34.238290 0.922242 5.225332 -35.057353 4.574431 -5.525170 0.768855 -8.377902 8.925349 -0.984222 -1.377324 -1.693664 4.908724 6.841055 1.404513 69.475203 2.010298 -7.170027 0.905719 42.136699 -0.482163 0.000000 0.000000 -0.000000 -17.125132 17.010171 -1.979104 -0.847324 3.134943 18.731193 0.000000 0.000000 0.000000 -16.043228 11.362876 -16.780492 4.712172 0.108164 21.812431 
3.740219 0.145778 0.020490 3.433293 18.495600 -5.724375 -0.000000 0.000000 -0.000000 -7.158368 -0.425369 -1.483928 -0.641598 -0.694042 -3.001442 0.000000 0.000000 0.000000 -0.829364 -1.374306 -4.022565 2.554760 -5.340826 -1.376976 -1.623853 -1.468328 -4.618420 -33.808597 1.070441 5.208092 -35.704630 4.460760 -5.633830 0.694854 -9.262182 8.742515 -1.199357 -1.242956 -1.740038 4.760165 6.679669 1.369221 69.714334 2.305734 -6.612152 0.933368 41.519730 -0.461428 0.000000 0.000000 -0.000000 -16.765374 16.946189 -2.375763 -0.695510 3.390368 18.578353 0.000000 0.000000 0.000000 -15.718041 9.266028 -15.766159 4.209336 -0.297605 20.177065 
3.873184 0.216560 0.047191 3.047612 19.222526 -5.559551 -0.000000 0.000000 -0.000000 -7.582672 -0.279308 -1.232519 -0.732188 -0.599503 -3.152807 0.000000 0.000000 0.000000 -0.988557 -1.302344 -4.104612 2.753507 -4.806302 -1.544382 -1.722345 -1.376553 -4.746863 -33.280725 1.192515 5.196903 -36.390634 4.163906 -5.546864 0.635359 -10.045405 8.627146 -1.388178 -1.112908 -1.779604 4.757853 6.527457 1.321776 69.367373 2.428413 -6.286328 0.926223 41.366228 -0.466295 0.000000 0.000000 -0.000000 -16.419189 16.822475 -2.693416 -0.666227 3.627192 18.362299 0.000000 0.000000 0.000000 -15.364575 7.364725 -14.897184 3.780893 -0.712108 18.556437 
3.956582 0.284981 0.073782 2.766188 19.426324 -5.404896 -0.000000 0.000000 -0.000000 -7.895587 -0.182691 -1.046397 -0.801617 -0.537842 -3.308013 0.000000 0.000000 0.000000 -1.110359 -1.252400 -4.174621 2.959750 -4.374321 -1.772776 -1.802658 -1.305474 -4.860361 -32.654372 1.198420 5.242089 -37.106587 3.674914 -5.138162 0.587820 -10.659942 8.528104 -1.529579 -1.015184 -1.820508 4.850683 6.404667 1.278766 68.723998 2.412849 -6.283543 0.897572 41.578583 -0.478445 0.000000 0.000000 -0.000000 -16.113985 16.822543 -2.884641 -0.738654 3.758852 18.064954 0.000000 0.000000 0.000000 -15.040432 5.851628 -14.191579 3.432994 -1.089544 16.994441 
3.992648 0.348983 0.097869 2.588387 19.199348 -5.264519 -0.000000 0.000000 -0.000000 -8.117061 -0.131380 -0.911047 -0.811589 -0.523619 -3.483850 0.000000 0.000000 0.000000 -1.170671 -1.229081 -4.255870 3.180848 -4.040820 -1.984856 -1.844489 -1.265119 -4.985612 -31.904328 1.121526 5.338606 -37.782246 3.179753 -4.492878 0.552669 -11.028001 8.442022 -1.600075 -0.964675 -1.878434 4.936096 6.287855 1.235862 67.986144 2.268702 -6.489797 0.861709 42.085602 -0.497717 0.000000 0.000000 -0.000000 -15.816154 16.998557 -2.974300 -0.892554 3.832314 17.744125 0.000000 0.000000 0.000000 -14.737065 4.819498 -13.651741 3.180698 -1.492289 15.488010 
3.983088 0.407111 0.116735 2.478742 18.783772 -5.152730 -0.000000 0.000000 -0.000000 -8.254791 -0.120404 -0.771313 -0.773878 -0.561222 -3.700682 0.000000 0.000000 0.000000 -1.157495 -1.234369 -4.371775 3.378933 -3.876228 -2.170238 -1.834604 -1.271012 -5.139659 -31.114431 1.008542 5.518121 -38.372388 2.752240 -3.780298 0.518599 -11.248708 8.358841 -1.590794 -0.973863 -1.963534 4.954569 6.159993 1.196657 67.373700 1.991353 -6.642160 0.824897 42.655221 -0.506935 0.000000 0.000000 -0.000000 -15.510640 17.330882 -2.966831 -1.058216 3.902668 17.412040 0.000000 0.000000 0.000000 -14.490720 4.210011 -13.303604 3.037517 -1.788860 14.273868 
3.929025 0.456943 0.125892 2.429041 18.227342 -5.071215 -0.000000 0.000000 -0.000000 -8.316598 -0.149159 -0.644791 -0.703009 -0.645183 -3.936703 0.000000 0.000000 0.000000 -1.071292 -1.268345 -4.512067 3.525363 -3.846191 -2.371738 -1.769214 -1.340224 -5.335734 -30.297014 0.860181 5.747985 -38.933190 2.448344 -3.034478 0.480603 -11.407184 8.284653 -1.497842 -1.044656 -2.074017 4.886779 6.000413 1.163253 66.944109 1.660135 -6.701180 0.786697 43.188463 -0.507116 0.000000 0.000000 -0.000000 -15.217920 17.761176 -2.893070 -1.228820 3.966302 17.064833 0.000000 0.000000 0.000000 -14.268428 3.949658 -13.179751 3.009127 -1.916826 13.452682 
